<svg xmlns="http://www.w3.org/2000/svg" viewBox="0 0 1674.2 500">
<rect x="250" y="0" width="250" height="125"/>
<rect x="250" y="250" width="250" height="250"/>
<path d="M250,0c0,138.1-111.9,250-250,250V0H250z"/>
<path d="M0,250h250v250C250,361.9,138.1,250,0,250z"/>
<g>
	<path d="M720.8,186.8v0.7h-25.5l-47.8-55.9v55.9h-21.7v-125h21.7v56l44.8-56H717v0.6l-49.2,61.4L720.8,186.8z"/>
	<path d="M737.2,62.6h78.1v20h-56.4v36h50.5v19.5h-50.5v49.4h-21.7V62.6z"/>
	<path d="M897.3,109.1c5.9,3.7,10.6,8.8,14,15.3c3.4,6.5,5.1,13.8,5.1,21.9c0,8.5-1.7,16-5.1,22.5
		c-3.4,6.6-8,11.7-14,15.3c-5.9,3.7-12.7,5.5-20.1,5.5c-5.5,0-10.6-1-15.3-3c-4.7-2-8.8-4.8-12.2-8.4c0.2,3.8,0.4,10.3,0.4,19.5
		V228h-20V105.6h13.6l3.9,12.5c3.4-4.7,7.7-8.2,12.8-10.8c5.1-2.5,10.7-3.8,17-3.8C884.7,103.6,891.4,105.4,897.3,109.1z
			M889.6,165c4.2-4.7,6.3-10.8,6.3-18.3c0-7.6-2.1-13.8-6.3-18.5c-4.2-4.7-9.8-7.1-16.6-7.1c-7.1,0-12.8,2.3-17.2,7
		c-4.3,4.7-6.5,10.7-6.5,18.2c0,7.7,2.2,13.9,6.6,18.7c4.4,4.7,10.1,7.1,17.1,7.1C879.9,172.1,885.4,169.8,889.6,165z"/>
	<path d="M990.4,107.3l-5.1,16.9c-3.4-1.2-7-1.8-10.7-1.8c-5.9,0-10.6,1.8-14.2,5.5c-3.6,3.7-5.3,8.7-5.3,15.1v44.7
		h-20v-82h13.6l3.9,12.1c2.3-4.5,5.5-8,9.6-10.4c4-2.4,8.8-3.6,14.1-3.6C981.7,103.8,986.4,104.9,990.4,107.3z"/>
	<path d="M1015.7,184.4c-6.7-3.7-11.9-8.8-15.6-15.4c-3.7-6.6-5.6-14.1-5.6-22.4c0-8.3,1.9-15.8,5.6-22.3
		c3.7-6.6,8.9-11.7,15.6-15.3c6.7-3.7,14.2-5.5,22.7-5.5c8.5,0,16,1.8,22.8,5.5c6.7,3.7,12,8.8,15.7,15.3c3.7,6.6,5.6,14,5.6,22.3
		c0,8.3-1.9,15.8-5.6,22.4c-3.7,6.6-9,11.8-15.7,15.4c-6.7,3.7-14.3,5.5-22.8,5.5C1029.9,189.9,1022.4,188.1,1015.7,184.4z
			M1055.6,165c4.3-4.7,6.5-10.9,6.5-18.5c0-7.6-2.2-13.8-6.5-18.5c-4.4-4.7-10.1-7.1-17.2-7.1c-7,0-12.7,2.4-17.1,7.2
		c-4.4,4.8-6.6,10.9-6.6,18.4c0,7.5,2.2,13.6,6.6,18.4c4.4,4.8,10.1,7.2,17.1,7.2C1045.5,172.1,1051.2,169.8,1055.6,165z"/>
	<path d="M1182.5,55.3v132.3h-13.8l-3.5-12.3c-3.4,4.5-7.6,8.1-12.6,10.6c-5,2.5-10.6,3.8-17,3.8
		c-7.7,0-14.6-1.8-20.6-5.5c-6-3.7-10.7-8.8-14-15.3c-3.3-6.6-5-14.1-5-22.7c0-8.1,1.7-15.4,5.1-21.9c3.4-6.5,8.1-11.5,14.1-15.2
		c6-3.6,12.8-5.4,20.4-5.4c5.5,0,10.7,1,15.4,3.1c4.8,2.1,8.8,5,11.9,8.6c-0.4-7.6-0.6-15.4-0.6-23.5V55.3H1182.5z M1156.7,165.1
		c4.3-4.7,6.4-10.8,6.4-18.6c0-7.6-2.1-13.7-6.4-18.4c-4.3-4.7-10-7-17.1-7c-7,0-12.6,2.3-16.9,7c-4.3,4.7-6.4,10.8-6.4,18.4
		c0,7.6,2.1,13.8,6.4,18.5c4.3,4.7,9.9,7.1,16.9,7.1C1146.7,172.1,1152.4,169.8,1156.7,165.1z"/>
	<path d="M1278.6,105.6v82h-14l-4-12.5c-2.8,4.4-6.5,7.9-10.9,10.4c-4.5,2.5-9.5,3.8-15.2,3.8c-9.7,0-17-2.9-22.1-8.7
		c-5-5.8-7.5-13.9-7.5-24.2v-50.7h20.2v48.9c0,11.1,4.8,16.7,14.3,16.7c6,0,10.7-2.2,14.1-6.6c3.4-4.4,5.1-9.9,5.1-16.5v-42.4
		H1278.6z"/>
	<path d="M1318.7,184.9c-6.4-3.4-11.7-8.3-15.7-14.9c-4-6.6-6.1-14.4-6.1-23.4c0-8.7,1.9-16.3,5.8-22.9
		c3.9-6.6,9.1-11.6,15.7-15.1c6.6-3.5,13.8-5.2,21.7-5.2c11.9,0,22.1,3.7,30.5,11l-9.7,13.4c-2.9-2.4-5.9-4.2-8.9-5.3
		c-3-1.1-6.5-1.7-10.4-1.7c-7,0-12.8,2.4-17.5,7.1c-4.7,4.7-7,10.9-7,18.7c0,7.8,2.3,14.1,6.9,18.7c4.6,4.7,10.3,7,17.2,7
		c4.3,0,8.1-0.7,11.4-2c3.3-1.3,6.5-3.5,9.6-6.4l10.1,13.4c-4.8,4.4-9.7,7.6-14.8,9.6c-5.1,2-11.2,3-18.3,3
		C1332,189.9,1325.1,188.3,1318.7,184.9z"/>
	<path d="M1399.4,182.7c-4.3-4.5-6.5-11.2-6.5-20.1v-39.9l-14.5-1.1v-16h14.5l0.6-26.3h19.5v26.3h25.4v17.1h-25.4v37.9
		c0,3.8,0.8,6.5,2.3,8.1c1.5,1.6,3.8,2.4,6.7,2.4c4.8,0,9.4-1.4,13.8-4.2l6.4,15.1c-8,5-16.2,7.5-24.8,7.5
		C1409.7,189.4,1403.7,187.2,1399.4,182.7z"/>
	<path d="M1456.3,85.1c-2.3-2.3-3.4-5.1-3.4-8.5c0-3.4,1.1-6.3,3.4-8.5c2.3-2.3,5.3-3.4,9.1-3.4c3.8,0,6.8,1.2,9.1,3.5
		c2.3,2.3,3.4,5.2,3.4,8.6c0,3.3-1.2,6.1-3.5,8.4c-2.3,2.3-5.3,3.4-9,3.4C1461.6,88.5,1458.6,87.4,1456.3,85.1z M1455.3,105.6h20
		v82h-20V105.6z"/>
	<path d="M1515,184.4c-6.7-3.7-11.9-8.8-15.6-15.4c-3.7-6.6-5.6-14.1-5.6-22.4c0-8.3,1.9-15.8,5.6-22.3
		c3.7-6.6,8.9-11.7,15.6-15.3c6.7-3.7,14.2-5.5,22.7-5.5s16,1.8,22.8,5.5c6.7,3.7,12,8.8,15.7,15.3c3.7,6.6,5.6,14,5.6,22.3
		c0,8.3-1.9,15.8-5.6,22.4c-3.7,6.6-9,11.8-15.7,15.4c-6.7,3.7-14.3,5.5-22.8,5.5S1521.6,188.1,1515,184.4z M1554.8,165
		c4.3-4.7,6.5-10.9,6.5-18.5c0-7.6-2.2-13.8-6.5-18.5c-4.3-4.7-10.1-7.1-17.2-7.1c-7,0-12.7,2.4-17.1,7.2
		c-4.4,4.8-6.6,10.9-6.6,18.4c0,7.5,2.2,13.6,6.6,18.4c4.4,4.8,10.1,7.2,17.1,7.2C1544.8,172.1,1550.5,169.8,1554.8,165z"/>
	<path d="M1666.8,111.9c5,5.7,7.4,13.8,7.4,24.3v51.3h-20v-49.4c0-11.1-4.7-16.7-14-16.7c-6.1,0-11,2-14.6,5.9
		c-3.6,3.9-5.4,9-5.4,15.3v45h-20v-82h13.6l4,12.9c2.9-4.5,6.7-8.2,11.3-10.9c4.6-2.8,10-4.1,16.3-4.1
		C1654.7,103.4,1661.8,106.2,1666.8,111.9z"/>
</g>
</svg>
