<svg xmlns="http://www.w3.org/2000/svg" viewBox="0 0 1660 502">
  <radialGradient id="pingupWmBall" cx="311.5568" cy="247.6891" r="97.2985" gradientTransform="matrix(0.8306 0.5568 -0.4809 0.7173 171.8667 -103.4647)" gradientUnits="userSpaceOnUse">
    <stop offset="0.0636" stop-color="#FFFFFF"></stop>
    <stop offset="0.5" stop-color="#E2E2E2"></stop>
    <stop offset="1" stop-color="#ABABAB"></stop>
  </radialGradient>
  <path fill="#a00010" d="M262.7,486.6c13.1,13.1,32.6,17.8,50.1,11.7c37.6-13.1,74.1-36.2,107.2-69.4c110.2-110.2,110.2-248,6.9-351.3S185.8-25.7,75.5,84.5c-33.1,33.1-56.3,69.6-69.4,107.2c-6.1,17.5-1.4,37,11.7,50.1L262.7,486.6z"></path>
  <circle cx="349.9" cy="274.9" r="83.3" fill="url(#pingupWmBall)"></circle>
  <path fill="#0A0A0A" d="M642.8,439.8h-46.2V197.4h46.2v7.7c5.9-3.7,12.4-6.9,19.3-9.5c6.9-2.6,14.6-4,23.1-4c25.3,0,46.2,7.3,62.7,22c17.3,15.6,25.9,36.9,25.9,64.1c0,18.3-4,33.9-11.9,46.7c-7.9,12.9-18.6,22.7-31.9,29.5c-13.4,6.8-28.4,10.2-45,10.2c-8.6,0-16.3-1.1-23.1-3.4c-6.8-2.2-13.1-5.3-19.1-9.2V439.8z M687.7,323.9c12.9-0.9,22.8-5.8,29.6-14.8c6.8-9,10.3-20,10.3-33c0-12.9-3.4-23.8-10.3-32.8c-6.8-9-16.6-14-29.4-15h-5.4c-13.2,1-23.9,6-32,15c-8.1,9-12.2,19.9-12.2,32.7c0,12.9,4.1,23.8,12.2,32.8c8.1,9,18.8,14,32,15H687.7z"></path>
  <path fill="#0A0A0A" d="M821.9,182.7c-6.4,0-11.8-2.3-16.3-6.8c-4.5-4.5-6.7-9.9-6.7-16.2c0-6.4,2.2-11.8,6.7-16.3c4.5-4.5,9.9-6.7,16.3-6.7c6.4,0,11.8,2.2,16.3,6.7c4.5,4.5,6.7,9.9,6.7,16.3c0,6.3-2.2,11.7-6.7,16.2C833.8,180.4,828.3,182.7,821.9,182.7z M844.3,358.2h-45.4V197.4h45.4V358.2z"></path>
  <path fill="#0A0A0A" d="M1047.8,358.2h-46.2V276c0-13-3.4-24-10.3-33c-6.8-9-16.7-13.9-29.6-14.8h-5.2c-5.4,0.3-10.3,1.9-14.6,4.7c-4.4,2.8-8.2,6.3-11.6,10.6c-6.1,8.5-9.1,17.8-9.1,27.9v86.8h-46.2V197.4h46.2v6.7c13-9.6,25.6-14.5,37.8-14.5c16.6,0,31.6,3.4,45,10.2c13.4,6.8,24,16.6,31.9,29.5c7.9,12.9,11.9,28.4,11.9,46.6V358.2z"></path>
  <path fill="#0A0A0A" d="M1163.6,442.8c-16.5,0-31.4-3.4-44.9-10.1c-12.9-6.5-24-17.3-33.5-32.3l42.5-15.8c8.6,13.1,21.4,19.7,38.3,19.7c12.9-0.9,22.8-5.8,29.6-14.8c6.8-9,10.3-19.6,10.3-31.9c-6.3,2.5-12.9,4.8-19.8,7.1c-7,2.3-14.6,3.4-22.9,3.4c-16.7,0-31.8-3.4-45.1-10.1c-13.4-6.7-24-16.5-31.8-29.3c-7.8-12.8-11.7-28.1-11.7-46.1c0-14.5,2.4-27.2,7.1-38.1s11.2-20,19.5-27.2c8.3-7.2,17.8-12.7,28.4-16.3c10.6-3.6,21.9-5.5,33.6-5.5c5,0,9.9,0.5,14.6,1.6c4.7,1.1,9.1,2.4,13.1,4c4,1.6,9,3.8,15,6.5v-9.9h46.1v155.5c0,16.1-2.4,29.7-7.1,40.5c-4.7,10.9-11.2,20-19.4,27.2c-8.2,7.3-17.7,12.7-28.3,16.3C1186.6,441,1175.4,442.8,1163.6,442.8z M1166.1,327.8c13.1-1,23.6-6,31.4-15.1c7.8-9,11.8-19.9,11.8-32.7c0-12.9-4-23.8-11.9-32.9c-7.9-9-18.4-14-31.4-14.9h-5.4c-12.8,0.9-22.6,5.8-29.4,14.8c-6.8,9-10.3,20-10.3,33c0,12.9,3.4,23.8,10.3,32.8c6.8,9,16.6,14,29.4,15H1166.1z"></path>
  <path fill="#a00010" d="M1368.3,363.1c-16.6,0-31.6-3.4-45-10.2c-13.4-6.8-24-16.6-32-29.5c-7.9-12.9-11.9-28.4-11.9-46.6v-79.2h46.2v79.2c0,13,3.4,24,10.3,33c6.8,9,16.7,13.9,29.6,14.8h5.2c5.4-0.3,10.3-1.9,14.6-4.7c4.4-2.8,8.2-6.3,11.4-10.6c6.2-8.5,9.2-17.8,9.2-27.9v-83.7h46.2v160.8h-46.2v-8.1c-3.7,2.7-8.7,5.5-15.1,8.4C1384.7,361.6,1377.1,363.1,1368.3,363.1z"></path>
  <path fill="#a00010" d="M1525.5,439.8h-46.2V197.4h46.2v7.7c5.9-3.7,12.4-6.9,19.3-9.5c6.9-2.6,14.6-4,23.1-4c25.3,0,46.2,7.3,62.7,22c17.3,15.6,25.9,36.9,25.9,64.1c0,18.3-4,33.9-11.9,46.7c-7.9,12.9-18.6,22.7-31.9,29.5c-13.4,6.8-28.4,10.2-45,10.2c-8.6,0-16.3-1.1-23.1-3.4c-6.8-2.2-13.1-5.3-19.1-9.2V439.8z M1570.4,323.9c12.9-0.9,22.8-5.8,29.6-14.8c6.8-9,10.3-20,10.3-33c0-12.9-3.4-23.8-10.3-32.8c-6.8-9-16.6-14-29.4-15h-5.4c-13.2,1-23.9,6-32,15c-8.1,9-12.2,19.9-12.2,32.7c0,12.9,4.1,23.8,12.2,32.8c8.1,9,18.8,14,32,15H1570.4z"></path>
</svg>